<svg width="603" height="3366" viewBox="0 0 603 3366" class="keymap" xmlns="http://www.w3.org/2000/svg" xmlns:xlink="http://www.w3.org/1999/xlink">
<style>/* inherit to force styles through use tags */
svg path {
    fill: inherit;
}

/* font and background color specifications */
svg.keymap {
    font-family: SFMono-Regular,Consolas,Liberation Mono,Menlo,monospace;
    font-size: 14px;
    font-kerning: normal;
    text-rendering: optimizeLegibility;
    fill: #24292e;
}

/* default key styling */
rect.key {
    fill: #f6f8fa;
}

rect.key, rect.combo {
    stroke: #c9cccf;
    stroke-width: 1;
}

/* default key side styling, only used is draw_key_sides is set */
rect.side {
    filter: brightness(90%);
}

/* color accent for combo boxes */
rect.combo, rect.combo-separate {
    fill: #cdf;
}

/* color accent for held keys */
rect.held, rect.combo.held {
    fill: #fdd;
}

/* color accent for ghost (optional) keys */
rect.ghost, rect.combo.ghost {
    stroke-dasharray: 4, 4;
    stroke-width: 2;
}

text {
    text-anchor: middle;
    dominant-baseline: middle;
}

/* styling for layer labels */
text.label {
    font-weight: bold;
    text-anchor: start;
    stroke: white;
    stroke-width: 4;
    paint-order: stroke;
}

/* styling for optional footer */
text.footer {
    text-anchor: end;
    dominant-baseline: auto;
    stroke: white;
    stroke-width: 4;
    paint-order: stroke;
}

/* styling for combo tap, and key non-tap label text */
text.combo, text.hold, text.shifted, text.left, text.right, text.tl, text.tr, text.bl, text.br {
    font-size: 11px;
}

text.hold, text.bl, text.br {
    text-anchor: middle;
    dominant-baseline: auto;
}

text.shifted, text.tl, text.tr {
    text-anchor: middle;
    dominant-baseline: hanging;
}

text.left, text.tl, text.bl {
    text-anchor: start;
}

text.right, text.tr, text.br {
    text-anchor: end;
}

text.layer-activator {
    text-decoration: underline;
}

/* styling for hold/shifted label text in combo box */
text.combo.hold, text.combo.shifted, text.combo.left, text.combo.right {
    font-size: 8px;
}

/* lighter symbol for transparent keys */
text.trans {
    fill: #7b7e81;
}

/* styling for combo dendrons */
path.combo {
    stroke-width: 1;
    stroke: gray;
    fill: none;
}

/* Start Tabler Icons Cleanup */
/* cannot use height/width with glyphs */
.icon-tabler > path {
    fill: inherit;
    stroke: inherit;
    stroke-width: 2;
}
/* hide tabler's default box */
.icon-tabler > path[stroke="none"][fill="none"] {
    visibility: hidden;
}
/* End Tabler Icons Cleanup */
</style>
<g transform="translate(30, 0)" class="layer-Default">
<text x="0" y="28" class="label" id="Default">Default:</text>
<g transform="translate(0, 56)">
<g transform="translate(202, 42)" class="key keypos-0">
<rect rx="6" ry="6" x="-54" y="-40" width="108" height="80" class="key"/>
<text x="0" y="0" class="key tap">ENTER</text>
<a href="#Snipe">
<text x="0" y="38" class="key hold layer-activator">Snipe</text>
</a></g>
<g transform="translate(342, 42)" class="key keypos-1">
<rect rx="6" ry="6" x="-54" y="-40" width="108" height="80" class="key"/>
<text x="0" y="0" class="key tap">ESC</text>
<a href="#Scroll">
<text x="0" y="38" class="key hold layer-activator">Scroll</text>
</a></g>
<g transform="translate(76, 119)" class="key keypos-2">
<rect rx="6" ry="6" x="-40" y="-103" width="80" height="206" class="key"/>
<text x="0" y="0" class="key tap">
<tspan x="0" dy="-0.6em">Middle</tspan><tspan x="0" dy="1.2em">Click</tspan>
</text>
</g>
<g transform="translate(468, 119)" class="key keypos-3">
<rect rx="6" ry="6" x="-40" y="-103" width="80" height="206" class="key"/>
<text x="0" y="0" class="key tap">
<tspan x="0" dy="-0.9em">Copy/</tspan><tspan x="0" dy="1.2em">Paste</tspan>
</text>
<a href="#Scroll">
<text x="0" y="101" class="key hold layer-activator">Scroll</text>
</a></g>
<g transform="translate(76, 357)" class="key keypos-4">
<rect rx="6" ry="6" x="-40" y="-103" width="80" height="206" class="key"/>
<text x="0" y="0" class="key tap">
<tspan x="0" dy="-0.6em">Left</tspan><tspan x="0" dy="1.2em">Click</tspan>
</text>
</g>
<g transform="translate(468, 357)" class="key keypos-5">
<rect rx="6" ry="6" x="-40" y="-103" width="80" height="206" class="key"/>
<text x="0" y="0" class="key tap">
<tspan x="0" dy="-0.6em">Right</tspan><tspan x="0" dy="1.2em">Click</tspan>
</text>
</g>
<g transform="translate(202, 434)" class="key keypos-6">
<rect rx="6" ry="6" x="-54" y="-40" width="108" height="80" class="key"/>
<text x="0" y="0" class="key tap">
<tspan x="0" dy="-0.9em">Mouse</tspan><tspan x="0" dy="1.2em">4</tspan>
</text>
<a href="#Extras">
<text x="0" y="38" class="key hold layer-activator">Extras</text>
</a></g>
<g transform="translate(342, 434)" class="key keypos-7">
<rect rx="6" ry="6" x="-54" y="-40" width="108" height="80" class="key"/>
<text x="0" y="0" class="key tap">
<tspan x="0" dy="-0.9em">Mouse</tspan><tspan x="0" dy="1.2em">5</tspan>
</text>
<a href="#Device">
<text x="0" y="38" class="key hold layer-activator">Device</text>
</a></g>
<g transform="translate(10, 448)" class="key keypos-8">
<rect rx="6" ry="6" x="-8" y="-26" width="16" height="52" class="key"/>
<text x="0" y="0" class="key tap">
<tspan x="0" dy="-0.6em">VOL</tspan><tspan x="0" dy="1.2em">UP</tspan>
</text>
</g>
<g transform="translate(533, 448)" class="key keypos-9">
<rect rx="6" ry="6" x="-8" y="-26" width="16" height="52" class="key"/>
<text x="0" y="0" class="key tap">Ctl+TAB</text>
</g>
<g transform="translate(56, 486)" class="key keypos-10">
<rect rx="6" ry="6" x="-26" y="-8" width="52" height="16" class="key"/>
<text x="0" y="0" class="key tap">
<tspan x="0" dy="-0.6em">VOL</tspan><tspan x="0" dy="1.2em">DN</tspan>
</text>
</g>
<g transform="translate(487, 486)" class="key keypos-11">
<rect rx="6" ry="6" x="-26" y="-8" width="52" height="16" class="key"/>
<text x="0" y="0" class="key tap">
<tspan x="0" dy="-0.6em">Ctl+Sft</tspan><tspan x="0" dy="1.2em">+TAB</tspan>
</text>
</g>
</g>
</g>
<g transform="translate(30, 552)" class="layer-Extras">
<text x="0" y="28" class="label" id="Extras">Extras:</text>
<g transform="translate(0, 56)">
<g transform="translate(202, 42)" class="key keypos-0">
<rect rx="6" ry="6" x="-54" y="-40" width="108" height="80" class="key"/>
<text x="0" y="0" class="key tap">Copy</text>
</g>
<g transform="translate(342, 42)" class="key keypos-1">
<rect rx="6" ry="6" x="-54" y="-40" width="108" height="80" class="key"/>
<text x="0" y="0" class="key tap">Paste</text>
</g>
<g transform="translate(76, 119)" class="key keypos-2">
<rect rx="6" ry="6" x="-40" y="-103" width="80" height="206" class="key"/>
<text x="0" y="0" class="key tap">Cut</text>
</g>
<g transform="translate(468, 119)" class="key keypos-3">
<rect rx="6" ry="6" x="-40" y="-103" width="80" height="206" class="key"/>
<text x="0" y="0" class="key tap">Undo</text>
</g>
<g transform="translate(76, 357)" class="key keypos-4">
<rect rx="6" ry="6" x="-40" y="-103" width="80" height="206" class="key"/>
<text x="0" y="0" class="key tap">Undo</text>
</g>
<g transform="translate(468, 357)" class="key keypos-5">
<rect rx="6" ry="6" x="-40" y="-103" width="80" height="206" class="key"/>
<text x="0" y="0" class="key tap">Copy</text>
</g>
<g transform="translate(202, 434)" class="key trans keypos-6">
<rect rx="6" ry="6" x="-54" y="-40" width="108" height="80" class="key trans"/>
<text x="0" y="0" class="key trans tap">▽</text>
</g>
<g transform="translate(342, 434)" class="key keypos-7">
<rect rx="6" ry="6" x="-54" y="-40" width="108" height="80" class="key"/>
<text x="0" y="0" class="key tap">Paste</text>
</g>
<g transform="translate(10, 448)" class="key keypos-8">
<rect rx="6" ry="6" x="-8" y="-26" width="16" height="52" class="key"/>
<text x="0" y="0" class="key tap">
<tspan x="0" dy="-0.6em">VOL</tspan><tspan x="0" dy="1.2em">UP</tspan>
</text>
</g>
<g transform="translate(533, 448)" class="key keypos-9">
<rect rx="6" ry="6" x="-8" y="-26" width="16" height="52" class="key"/>
<text x="0" y="0" class="key tap">Ctl+TAB</text>
</g>
<g transform="translate(56, 486)" class="key keypos-10">
<rect rx="6" ry="6" x="-26" y="-8" width="52" height="16" class="key"/>
<text x="0" y="0" class="key tap">
<tspan x="0" dy="-0.6em">VOL</tspan><tspan x="0" dy="1.2em">DN</tspan>
</text>
</g>
<g transform="translate(487, 486)" class="key keypos-11">
<rect rx="6" ry="6" x="-26" y="-8" width="52" height="16" class="key"/>
<text x="0" y="0" class="key tap">
<tspan x="0" dy="-0.6em">Ctl+Sft</tspan><tspan x="0" dy="1.2em">+TAB</tspan>
</text>
</g>
</g>
</g>
<g transform="translate(30, 1103)" class="layer-Device">
<text x="0" y="28" class="label" id="Device">Device:</text>
<g transform="translate(0, 56)">
<g transform="translate(202, 42)" class="key keypos-0">
<rect rx="6" ry="6" x="-54" y="-40" width="108" height="80" class="key"/>
<text x="0" y="0" class="key tap">
<tspan x="0" dy="-1.2em" style="font-size: 64%">Bluetooth</tspan><tspan x="0" dy="1.2em" style="font-size: 64%">config</tspan><tspan x="0" dy="1.2em" style="font-size: 64%">advertising</tspan>
</text>
</g>
<g transform="translate(342, 42)" class="key keypos-1">
<rect rx="6" ry="6" x="-54" y="-40" width="108" height="80" class="key"/>
<text x="0" y="0" class="key tap">
<tspan x="0" dy="-0.6em">BT</tspan><tspan x="0" dy="1.2em">CLR</tspan>
</text>
</g>
<g transform="translate(76, 119)" class="key keypos-2">
<rect rx="6" ry="6" x="-40" y="-103" width="80" height="206" class="key"/>
<text x="0" y="0" class="key tap">
<tspan x="0" dy="-1.2em" style="font-size: 88%">OS</tspan><tspan x="0" dy="1.2em" style="font-size: 88%">shortcut</tspan><tspan x="0" dy="1.2em" style="font-size: 88%">mode</tspan>
</text>
</g>
<g transform="translate(468, 119)" class="key keypos-3">
<rect rx="6" ry="6" x="-40" y="-103" width="80" height="206" class="key"/>
<text x="0" y="0" class="key tap">
<tspan x="0" dy="-0.6em">BT</tspan><tspan x="0" dy="1.2em">NXT</tspan>
</text>
</g>
<g transform="translate(76, 357)" class="key keypos-4">
<rect rx="6" ry="6" x="-40" y="-103" width="80" height="206" class="key"/>
<text x="0" y="0" class="key tap">
<tspan x="0" dy="-0.6em" style="font-size: 88%">Feedback</tspan><tspan x="0" dy="1.2em" style="font-size: 88%">on/off</tspan>
</text>
</g>
<g transform="translate(468, 357)" class="key keypos-5">
<rect rx="6" ry="6" x="-40" y="-103" width="80" height="206" class="key"/>
<text x="0" y="0" class="key tap">
<tspan x="0" dy="-0.6em">BT</tspan><tspan x="0" dy="1.2em">PRV</tspan>
</text>
</g>
<g transform="translate(202, 434)" class="key keypos-6">
<rect rx="6" ry="6" x="-54" y="-40" width="108" height="80" class="key"/>
<text x="0" y="0" class="key tap">
<tspan x="0" dy="-0.6em">Studio</tspan><tspan x="0" dy="1.2em">unlock</tspan>
</text>
</g>
<g transform="translate(342, 434)" class="key trans keypos-7">
<rect rx="6" ry="6" x="-54" y="-40" width="108" height="80" class="key trans"/>
<text x="0" y="0" class="key trans tap">▽</text>
</g>
<g transform="translate(10, 448)" class="key keypos-8">
<rect rx="6" ry="6" x="-8" y="-26" width="16" height="52" class="key"/>
<text x="0" y="0" class="key tap">
<tspan x="0" dy="-0.6em">VOL</tspan><tspan x="0" dy="1.2em">UP</tspan>
</text>
</g>
<g transform="translate(533, 448)" class="key keypos-9">
<rect rx="6" ry="6" x="-8" y="-26" width="16" height="52" class="key"/>
<text x="0" y="0" class="key tap">Ctl+TAB</text>
</g>
<g transform="translate(56, 486)" class="key keypos-10">
<rect rx="6" ry="6" x="-26" y="-8" width="52" height="16" class="key"/>
<text x="0" y="0" class="key tap">
<tspan x="0" dy="-0.6em">VOL</tspan><tspan x="0" dy="1.2em">DN</tspan>
</text>
</g>
<g transform="translate(487, 486)" class="key keypos-11">
<rect rx="6" ry="6" x="-26" y="-8" width="52" height="16" class="key"/>
<text x="0" y="0" class="key tap">
<tspan x="0" dy="-0.6em">Ctl+Sft</tspan><tspan x="0" dy="1.2em">+TAB</tspan>
</text>
</g>
</g>
</g>
<g transform="translate(30, 1655)" class="layer-Scroll">
<text x="0" y="28" class="label" id="Scroll">Scroll:</text>
<g transform="translate(0, 56)">
<g transform="translate(202, 42)" class="key trans keypos-0">
<rect rx="6" ry="6" x="-54" y="-40" width="108" height="80" class="key trans"/>
<text x="0" y="0" class="key trans tap">▽</text>
</g>
<g transform="translate(342, 42)" class="key trans keypos-1">
<rect rx="6" ry="6" x="-54" y="-40" width="108" height="80" class="key trans"/>
<text x="0" y="0" class="key trans tap">▽</text>
</g>
<g transform="translate(76, 119)" class="key trans keypos-2">
<rect rx="6" ry="6" x="-40" y="-103" width="80" height="206" class="key trans"/>
<text x="0" y="0" class="key trans tap">▽</text>
</g>
<g transform="translate(468, 119)" class="key keypos-3">
<rect rx="6" ry="6" x="-40" y="-103" width="80" height="206" class="key"/>
<text x="0" y="0" class="key tap">
<tspan x="0" dy="-0.6em">Scroll</tspan><tspan x="0" dy="1.2em">+sens</tspan>
</text>
</g>
<g transform="translate(76, 357)" class="key keypos-4">
<rect rx="6" ry="6" x="-40" y="-103" width="80" height="206" class="key"/>
<text x="0" y="0" class="key tap">
<tspan x="0" dy="-0.6em">Report</tspan><tspan x="0" dy="1.2em">rate</tspan>
</text>
</g>
<g transform="translate(468, 357)" class="key keypos-5">
<rect rx="6" ry="6" x="-40" y="-103" width="80" height="206" class="key"/>
<text x="0" y="0" class="key tap">
<tspan x="0" dy="-0.6em">Scroll</tspan><tspan x="0" dy="1.2em">-sens</tspan>
</text>
</g>
<g transform="translate(202, 434)" class="key keypos-6">
<rect rx="6" ry="6" x="-54" y="-40" width="108" height="80" class="key"/>
<text x="0" y="0" class="key tap">
<tspan x="0" dy="-0.6em">Pointer</tspan><tspan x="0" dy="1.2em">-sens</tspan>
</text>
</g>
<g transform="translate(342, 434)" class="key keypos-7">
<rect rx="6" ry="6" x="-54" y="-40" width="108" height="80" class="key"/>
<text x="0" y="0" class="key tap">
<tspan x="0" dy="-0.6em">Pointer</tspan><tspan x="0" dy="1.2em">+sens</tspan>
</text>
</g>
<g transform="translate(10, 448)" class="key keypos-8">
<rect rx="6" ry="6" x="-8" y="-26" width="16" height="52" class="key"/>
<text x="0" y="0" class="key tap">
<tspan x="0" dy="-0.6em">Pointer</tspan><tspan x="0" dy="1.2em">-sens</tspan>
</text>
</g>
<g transform="translate(533, 448)" class="key keypos-9">
<rect rx="6" ry="6" x="-8" y="-26" width="16" height="52" class="key"/>
<text x="0" y="0" class="key tap">
<tspan x="0" dy="-0.6em">Scroll</tspan><tspan x="0" dy="1.2em">+sens</tspan>
</text>
</g>
<g transform="translate(56, 486)" class="key keypos-10">
<rect rx="6" ry="6" x="-26" y="-8" width="52" height="16" class="key"/>
<text x="0" y="0" class="key tap">
<tspan x="0" dy="-0.6em">Pointer</tspan><tspan x="0" dy="1.2em">+sens</tspan>
</text>
</g>
<g transform="translate(487, 486)" class="key keypos-11">
<rect rx="6" ry="6" x="-26" y="-8" width="52" height="16" class="key"/>
<text x="0" y="0" class="key tap">
<tspan x="0" dy="-0.6em">Scroll</tspan><tspan x="0" dy="1.2em">-sens</tspan>
</text>
</g>
</g>
</g>
<g transform="translate(30, 2206)" class="layer-Snipe">
<text x="0" y="28" class="label" id="Snipe">Snipe:</text>
<g transform="translate(0, 56)">
<g transform="translate(202, 42)" class="key trans keypos-0">
<rect rx="6" ry="6" x="-54" y="-40" width="108" height="80" class="key trans"/>
<text x="0" y="0" class="key trans tap">▽</text>
</g>
<g transform="translate(342, 42)" class="key keypos-1">
<rect rx="6" ry="6" x="-54" y="-40" width="108" height="80" class="key"/>
<text x="0" y="0" class="key tap">
<tspan x="0" dy="-0.6em">Power</tspan><tspan x="0" dy="1.2em">off</tspan>
</text>
</g>
<g transform="translate(76, 119)" class="key trans keypos-2">
<rect rx="6" ry="6" x="-40" y="-103" width="80" height="206" class="key trans"/>
<text x="0" y="0" class="key trans tap">▽</text>
</g>
<g transform="translate(468, 119)" class="key trans keypos-3">
<rect rx="6" ry="6" x="-40" y="-103" width="80" height="206" class="key trans"/>
<text x="0" y="0" class="key trans tap">▽</text>
</g>
<g transform="translate(76, 357)" class="key trans keypos-4">
<rect rx="6" ry="6" x="-40" y="-103" width="80" height="206" class="key trans"/>
<text x="0" y="0" class="key trans tap">▽</text>
</g>
<g transform="translate(468, 357)" class="key trans keypos-5">
<rect rx="6" ry="6" x="-40" y="-103" width="80" height="206" class="key trans"/>
<text x="0" y="0" class="key trans tap">▽</text>
</g>
<g transform="translate(202, 434)" class="key trans keypos-6">
<rect rx="6" ry="6" x="-54" y="-40" width="108" height="80" class="key trans"/>
<text x="0" y="0" class="key trans tap">▽</text>
</g>
<g transform="translate(342, 434)" class="key trans keypos-7">
<rect rx="6" ry="6" x="-54" y="-40" width="108" height="80" class="key trans"/>
<text x="0" y="0" class="key trans tap">▽</text>
</g>
<g transform="translate(10, 448)" class="key keypos-8">
<rect rx="6" ry="6" x="-8" y="-26" width="16" height="52" class="key"/>
<text x="0" y="0" class="key tap">LEFT</text>
</g>
<g transform="translate(533, 448)" class="key keypos-9">
<rect rx="6" ry="6" x="-8" y="-26" width="16" height="52" class="key"/>
<text x="0" y="0" class="key tap">RIGHT</text>
</g>
<g transform="translate(56, 486)" class="key keypos-10">
<rect rx="6" ry="6" x="-26" y="-8" width="52" height="16" class="key"/>
<text x="0" y="0" class="key tap">RIGHT</text>
</g>
<g transform="translate(487, 486)" class="key keypos-11">
<rect rx="6" ry="6" x="-26" y="-8" width="52" height="16" class="key"/>
<text x="0" y="0" class="key tap">LEFT</text>
</g>
</g>
</g>
<g transform="translate(30, 2758)" class="layer-User">
<text x="0" y="28" class="label" id="User">User:</text>
<g transform="translate(0, 56)">
<g transform="translate(202, 42)" class="key trans keypos-0">
<rect rx="6" ry="6" x="-54" y="-40" width="108" height="80" class="key trans"/>
<text x="0" y="0" class="key trans tap">▽</text>
</g>
<g transform="translate(342, 42)" class="key trans keypos-1">
<rect rx="6" ry="6" x="-54" y="-40" width="108" height="80" class="key trans"/>
<text x="0" y="0" class="key trans tap">▽</text>
</g>
<g transform="translate(76, 119)" class="key trans keypos-2">
<rect rx="6" ry="6" x="-40" y="-103" width="80" height="206" class="key trans"/>
<text x="0" y="0" class="key trans tap">▽</text>
</g>
<g transform="translate(468, 119)" class="key trans keypos-3">
<rect rx="6" ry="6" x="-40" y="-103" width="80" height="206" class="key trans"/>
<text x="0" y="0" class="key trans tap">▽</text>
</g>
<g transform="translate(76, 357)" class="key trans keypos-4">
<rect rx="6" ry="6" x="-40" y="-103" width="80" height="206" class="key trans"/>
<text x="0" y="0" class="key trans tap">▽</text>
</g>
<g transform="translate(468, 357)" class="key trans keypos-5">
<rect rx="6" ry="6" x="-40" y="-103" width="80" height="206" class="key trans"/>
<text x="0" y="0" class="key trans tap">▽</text>
</g>
<g transform="translate(202, 434)" class="key trans keypos-6">
<rect rx="6" ry="6" x="-54" y="-40" width="108" height="80" class="key trans"/>
<text x="0" y="0" class="key trans tap">▽</text>
</g>
<g transform="translate(342, 434)" class="key trans keypos-7">
<rect rx="6" ry="6" x="-54" y="-40" width="108" height="80" class="key trans"/>
<text x="0" y="0" class="key trans tap">▽</text>
</g>
<g transform="translate(10, 448)" class="key keypos-8">
<rect rx="6" ry="6" x="-8" y="-26" width="16" height="52" class="key"/>
<text x="0" y="0" class="key tap">
<tspan x="0" dy="-0.6em">VOL</tspan><tspan x="0" dy="1.2em">UP</tspan>
</text>
</g>
<g transform="translate(533, 448)" class="key keypos-9">
<rect rx="6" ry="6" x="-8" y="-26" width="16" height="52" class="key"/>
<text x="0" y="0" class="key tap">Ctl+TAB</text>
</g>
<g transform="translate(56, 486)" class="key keypos-10">
<rect rx="6" ry="6" x="-26" y="-8" width="52" height="16" class="key"/>
<text x="0" y="0" class="key tap">
<tspan x="0" dy="-0.6em">VOL</tspan><tspan x="0" dy="1.2em">DN</tspan>
</text>
</g>
<g transform="translate(487, 486)" class="key keypos-11">
<rect rx="6" ry="6" x="-26" y="-8" width="52" height="16" class="key"/>
<text x="0" y="0" class="key tap">
<tspan x="0" dy="-0.6em">Ctl+Sft</tspan><tspan x="0" dy="1.2em">+TAB</tspan>
</text>
</g>
</g>
</g>
</svg>
